<svg xmlns="http://www.w3.org/2000/svg" viewBox="0 0 714.46 187.2"><defs><style>.cls-1{fill:#363a3c;}.cls-2{fill:#36a5cd;}</style></defs><g id="Layer_2" data-name="Layer 2"><g id="Layer_1-2" data-name="Layer 1"><path class="cls-1" d="M195.74,116.53A68.48,68.48,0,0,1,201.24,89a70.54,70.54,0,0,1,37.54-37.38,71.14,71.14,0,0,1,54.81,0,73.25,73.25,0,0,1,22.46,15.08A69.8,69.8,0,0,1,331.28,89a71.05,71.05,0,0,1,0,54.82,71.67,71.67,0,0,1-37.69,37.85,71.14,71.14,0,0,1-54.81,0,69.37,69.37,0,0,1-22.46-15.24,72.4,72.4,0,0,1-15.08-22.61A68.83,68.83,0,0,1,195.74,116.53Zm27.65,0a42.72,42.72,0,1,0,85.43,0A41.57,41.57,0,0,0,305.53,100a43.1,43.1,0,0,0-56.07-22.62,42.36,42.36,0,0,0-13.67,9.11A42.87,42.87,0,0,0,226.68,100,41.4,41.4,0,0,0,223.39,116.53Z"/><path class="cls-1" d="M431,45.54V73.49H416.88a41.33,41.33,0,0,0-16.49,3.3,42.67,42.67,0,0,0-22.62,22.62,41.4,41.4,0,0,0-3.3,16.49v70.68H346.2V115.9a68.52,68.52,0,0,1,5.5-27.49,69.8,69.8,0,0,1,15.23-22.3A72.48,72.48,0,0,1,389.55,51a68.76,68.76,0,0,1,27.33-5.5Z"/><path class="cls-1" d="M566.08,45.54V73.49H481a14,14,0,0,0-14.13,14.14,14.2,14.2,0,0,0,4.08,10.21A13.42,13.42,0,0,0,481,102.08h56.54a41.4,41.4,0,0,1,16.49,3.3,44.16,44.16,0,0,1,13.51,9,41,41,0,0,1,9.11,13.35,42.85,42.85,0,0,1,0,33A42.67,42.67,0,0,1,554,183.28a41.4,41.4,0,0,1-16.49,3.3H452.68v-28h84.81a14,14,0,0,0,14.45-14.45,13.66,13.66,0,0,0-4.08-10A14.08,14.08,0,0,0,537.49,130H481a41.4,41.4,0,0,1-16.49-3.29,41,41,0,0,1-13.35-9.11,44.16,44.16,0,0,1-8.95-13.51,42.85,42.85,0,0,1,0-33,41.51,41.51,0,0,1,22.3-22.3A41.4,41.4,0,0,1,481,45.54Z"/><path class="cls-1" d="M186,0l0,115.9a68.71,68.71,0,0,1-5.5,27.32c-.68,1.62-1.42,3.18-2.2,4.71a71.87,71.87,0,0,1-12.88,17.91A69.19,69.19,0,0,1,143,181.07a67.92,67.92,0,0,1-25.8,5.48c-.51,0-1,0-1.56,0h-1l-2.32-.07A67.58,67.58,0,0,1,88,181.07a69.4,69.4,0,0,1-22.46-15.23,71.54,71.54,0,0,1-12.86-17.91c-.78-1.53-1.52-3.09-2.21-4.71-.45-1.08-.89-2.15-1.29-3.24s-.78-2.19-1.12-3.29-.64-2.22-.94-3.34c-.43-1.7-.78-3.43-1.08-5.17H74.68a42.64,42.64,0,0,0,1.55,4.36,42.39,42.39,0,0,0,39.27,26.07h.18A42.73,42.73,0,0,0,142.61,149a39.49,39.49,0,0,0,3-2.75,42.91,42.91,0,0,0,12.4-30.31,41.52,41.52,0,0,0-3.3-16.5A43.27,43.27,0,0,0,150,91a41.94,41.94,0,0,0-4.34-5.1A42.46,42.46,0,0,0,132,76.79a43.28,43.28,0,0,0-4.52-1.59V46.55A66,66,0,0,1,142.82,51,73.17,73.17,0,0,1,158,59.87V45.54h0V0Z"/><circle class="cls-2" cx="116.02" cy="116.06" r="22.82"/><path class="cls-2" d="M28.64,102.28a84.06,84.06,0,0,1,5.84-20.6,87.39,87.39,0,0,1,47-46.63,87.3,87.3,0,0,1,21.34-5.89V0A112.53,112.53,0,0,0,70.54,8.36a116.69,116.69,0,0,0-62.23,62,110.36,110.36,0,0,0-8.31,32Z"/><path class="cls-2" d="M75.36,102.28c.33-1,.69-1.93,1.09-2.88A42.22,42.22,0,0,1,99.22,76.79c1.17-.49,2.35-.91,3.55-1.29V46.74A68.23,68.23,0,0,0,88.54,51,70.54,70.54,0,0,0,51,88.41a65.46,65.46,0,0,0-4.23,13.87Z"/><path class="cls-1" d="M709,88.41a69.8,69.8,0,0,0-15.23-22.3A72.48,72.48,0,0,0,671.11,51a68.76,68.76,0,0,0-27.33-5.5H593.27V73.49h50.51a41.42,41.42,0,0,1,16.5,3.3,42.7,42.7,0,0,1,22.61,22.62c.05.11.09.22.13.33a32.05,32.05,0,0,0-4.93-.38H625.24c-18.23,0-33.06,15.37-33.06,34.26v18.69c0,18.9,14.83,34.27,33.06,34.27h89.22V115.9A68.52,68.52,0,0,0,709,88.41Zm-83.72,71.25a7.21,7.21,0,0,1-7-7.35V133.62a7.2,7.2,0,0,1,7-7.34h52.85a7.2,7.2,0,0,1,7,7.34v18.69c0,1.9,0,7.29,0,7.29s-5,.06-7,.06Z"/></g></g></svg>